<svg xmlns="http://www.w3.org/2000/svg" aria-hidden="true" style="position:absolute;width:0;height:0;overflow:hidden">
  <symbol fill="none" xmlns="http://www.w3.org/2000/svg" viewBox="0 0 36 36" id="facebook-hover-black">
    <rect x="0.5" y="0.5" width="35" height="35" rx="9.5" stroke="#FBFBFB" stroke-opacity="0.1"></rect>
    <path d="M20.2 10.9001C20.35 10.9001 20.5 10.9001 20.8 10.9001V13.1501C20.65 13.1501 20.35 13.1501 20.05 13.1501C19.75 13.1501 19.45 13.1501 19.3 13.3001C19.15 13.4501 19.15 13.6001 19.15 13.9501C19.15 14.2501 19.15 14.4501 19.15 14.7501H20.8V16.6501H19.15V24.9001H16.6V16.6001H15.25V14.7001H16.6V14.0501C16.6 12.9501 16.75 12.1501 17.05 11.8001C17.5 11.1501 18.4 10.8501 19.75 10.8501C19.9 10.9001 20.05 10.9001 20.2 10.9001Z" fill="#FBFBFB"></path>
  </symbol>
  <symbol fill="none" xmlns="http://www.w3.org/2000/svg" viewBox="0 0 36 36" id="facebook-black">
    <rect x="0.5" y="0.5" width="35" height="35" rx="9.5" stroke="#FBFBFB" stroke-opacity="0.1"></rect>
    <g opacity="0.8">
      <path d="M20.2 10.9001C20.35 10.9001 20.5 10.9001 20.8 10.9001V13.1501C20.65 13.1501 20.35 13.1501 20.05 13.1501C19.75 13.1501 19.45 13.1501 19.3 13.3001C19.15 13.4501 19.15 13.6001 19.15 13.9501C19.15 14.2501 19.15 14.4501 19.15 14.7501H20.8V16.6501H19.15V24.9001H16.6V16.6001H15.25V14.7001H16.6V14.0501C16.6 12.9501 16.75 12.1501 17.05 11.8001C17.5 11.1501 18.4 10.8501 19.75 10.8501C19.9 10.9001 20.05 10.9001 20.2 10.9001Z" fill="#FBFBFB"></path>
    </g>
  </symbol>
  <symbol fill="none" xmlns="http://www.w3.org/2000/svg" viewBox="0 0 36 36" id="instagram-hover-black">
    <rect x="0.5" y="0.5" width="35" height="35" rx="9.5" stroke="#FBFBFB" stroke-opacity="0.1"></rect>
    <path d="M25.9485 14.7225C25.9387 14.051 25.8143 13.3849 25.5762 12.7568C25.1595 11.6844 24.311 10.8365 23.2368 10.4213C22.6157 10.188 21.9591 10.063 21.2945 10.0488C20.4398 10.0106 20.1688 10 17.9991 10C15.8294 10 15.5513 10 14.7028 10.0488C14.0391 10.063 13.3825 10.188 12.7614 10.4213C11.6873 10.8365 10.8378 11.6844 10.422 12.7568C10.1884 13.3769 10.0622 14.0324 10.0498 14.695C10.0116 15.5492 10 15.8197 10 17.9858C10 20.1519 10 20.4287 10.0498 21.2766C10.0631 21.9401 10.1884 22.5947 10.422 23.2165C10.8387 24.2881 11.6873 25.136 12.7623 25.5512C13.3807 25.7924 14.0373 25.929 14.7037 25.9503C15.5593 25.9885 15.8303 26 18 26C20.1697 26 20.4478 26 21.2963 25.9503C21.96 25.937 22.6166 25.812 23.2386 25.5787C24.3127 25.1627 25.1613 24.3147 25.578 23.2432C25.8116 22.6222 25.9369 21.9676 25.9502 21.3033C25.9884 20.4499 26 20.1794 26 18.0124C25.9982 15.8463 25.9982 15.5714 25.9485 14.7225ZM17.9938 22.0821C15.7246 22.0821 13.8863 20.2468 13.8863 17.9814C13.8863 15.7159 15.7246 13.8807 17.9938 13.8807C20.2612 13.8807 22.1013 15.7159 22.1013 17.9814C22.1013 20.2468 20.2612 22.0821 17.9938 22.0821ZM22.2648 14.6852C21.7343 14.6852 21.307 14.2577 21.307 13.729C21.307 13.2004 21.7343 12.7728 22.2648 12.7728C22.7934 12.7728 23.2217 13.2004 23.2217 13.729C23.2217 14.2577 22.7934 14.6852 22.2648 14.6852Z" fill="#FBFBFB"></path>
    <path d="M17.9952 20.485C19.3773 20.485 20.4977 19.3646 20.4977 17.9825C20.4977 16.6004 19.3773 15.48 17.9952 15.48C16.6131 15.48 15.4927 16.6004 15.4927 17.9825C15.4927 19.3646 16.6131 20.485 17.9952 20.485Z" fill="#FBFBFB"></path>
  </symbol>
  <symbol fill="none" xmlns="http://www.w3.org/2000/svg" viewBox="0 0 36 36" id="instagram-black">
    <rect x="0.5" y="0.5" width="35" height="35" rx="9.5" stroke="#FBFBFB" stroke-opacity="0.1"></rect>
    <g opacity="0.8">
      <path d="M25.9485 14.7225C25.9387 14.051 25.8143 13.3849 25.5762 12.7568C25.1595 11.6844 24.311 10.8365 23.2368 10.4213C22.6157 10.188 21.9591 10.063 21.2945 10.0488C20.4398 10.0106 20.1688 10 17.9991 10C15.8294 10 15.5513 10 14.7028 10.0488C14.0391 10.063 13.3825 10.188 12.7614 10.4213C11.6873 10.8365 10.8378 11.6844 10.422 12.7568C10.1884 13.3769 10.0622 14.0324 10.0498 14.695C10.0116 15.5492 10 15.8197 10 17.9858C10 20.1519 10 20.4287 10.0498 21.2766C10.0631 21.9401 10.1884 22.5947 10.422 23.2165C10.8387 24.2881 11.6873 25.136 12.7623 25.5512C13.3807 25.7924 14.0373 25.929 14.7037 25.9503C15.5593 25.9885 15.8303 26 18 26C20.1697 26 20.4478 26 21.2963 25.9503C21.96 25.937 22.6166 25.812 23.2386 25.5787C24.3127 25.1627 25.1613 24.3147 25.578 23.2432C25.8116 22.6222 25.9369 21.9676 25.9502 21.3033C25.9884 20.4499 26 20.1794 26 18.0124C25.9982 15.8463 25.9982 15.5714 25.9485 14.7225ZM17.9938 22.0821C15.7246 22.0821 13.8863 20.2468 13.8863 17.9814C13.8863 15.7159 15.7246 13.8807 17.9938 13.8807C20.2612 13.8807 22.1013 15.7159 22.1013 17.9814C22.1013 20.2468 20.2612 22.0821 17.9938 22.0821ZM22.2648 14.6852C21.7343 14.6852 21.307 14.2577 21.307 13.729C21.307 13.2004 21.7343 12.7728 22.2648 12.7728C22.7934 12.7728 23.2217 13.2004 23.2217 13.729C23.2217 14.2577 22.7934 14.6852 22.2648 14.6852Z" fill="#FBFBFB"></path>
      <path d="M17.9952 20.485C19.3773 20.485 20.4977 19.3646 20.4977 17.9825C20.4977 16.6004 19.3773 15.48 17.9952 15.48C16.6131 15.48 15.4927 16.6004 15.4927 17.9825C15.4927 19.3646 16.6131 20.485 17.9952 20.485Z" fill="#FBFBFB"></path>
    </g>
  </symbol>
  <symbol fill="none" xmlns="http://www.w3.org/2000/svg" viewBox="0 0 36 36" id="youtube-hover-black">
    <rect x="0.5" y="0.5" width="35" height="35" rx="9.5" stroke="#FBFBFB" stroke-opacity="0.1"></rect>
    <path fill-rule="evenodd" clip-rule="evenodd" d="M23.1499 11.7499C22.2999 11.6999 20.5499 11.6499 17.8999 11.6499H17.5499C14.9999 11.6499 13.2999 11.6999 12.4499 11.7999C11.2999 11.8999 10.4999 12.1999 10.0499 12.5999C9.6499 12.9499 9.34991 13.5999 9.24991 14.4499C9.19991 14.9999 9.1499 16.1499 9.1499 17.8999V18.1499C9.1499 19.7999 9.1999 20.9499 9.2999 21.4999C9.4499 22.2999 9.69992 22.8999 10.1999 23.2499C10.6999 23.6499 11.5499 23.8999 12.7499 23.9999C13.5999 24.0499 15.3499 24.0999 17.9999 24.0999H18.3499C20.8999 24.0999 22.5999 24.0499 23.4499 23.9499C24.5999 23.8499 25.3999 23.5499 25.8499 23.1499C26.2499 22.7999 26.5499 22.1499 26.6499 21.2999C26.6999 20.7499 26.7499 19.5999 26.7499 17.8499V17.5999C26.7499 15.9499 26.6999 14.7999 26.5999 14.2499C26.4499 13.4499 26.1999 12.8499 25.6999 12.4999C25.1999 12.0999 24.3499 11.8499 23.1499 11.7499ZM21.1999 17.8999L15.6999 21.1999V14.5999L21.1999 17.8999Z" fill="#FBFBFB"></path>
  </symbol>
  <symbol fill="none" xmlns="http://www.w3.org/2000/svg" viewBox="0 0 36 36" id="youtube-black">
    <rect x="0.5" y="0.5" width="35" height="35" rx="9.5" stroke="#FBFBFB" stroke-opacity="0.1"></rect>
    <g opacity="0.8">
      <path fill-rule="evenodd" clip-rule="evenodd" d="M23.1499 11.7499C22.2999 11.6999 20.5499 11.6499 17.8999 11.6499H17.5499C14.9999 11.6499 13.2999 11.6999 12.4499 11.7999C11.2999 11.8999 10.4999 12.1999 10.0499 12.5999C9.6499 12.9499 9.34991 13.5999 9.24991 14.4499C9.19991 14.9999 9.1499 16.1499 9.1499 17.8999V18.1499C9.1499 19.7999 9.1999 20.9499 9.2999 21.4999C9.4499 22.2999 9.69992 22.8999 10.1999 23.2499C10.6999 23.6499 11.5499 23.8999 12.7499 23.9999C13.5999 24.0499 15.3499 24.0999 17.9999 24.0999H18.3499C20.8999 24.0999 22.5999 24.0499 23.4499 23.9499C24.5999 23.8499 25.3999 23.5499 25.8499 23.1499C26.2499 22.7999 26.5499 22.1499 26.6499 21.2999C26.6999 20.7499 26.7499 19.5999 26.7499 17.8499V17.5999C26.7499 15.9499 26.6999 14.7999 26.5999 14.2499C26.4499 13.4499 26.1999 12.8499 25.6999 12.4999C25.1999 12.0999 24.3499 11.8499 23.1499 11.7499ZM21.1999 17.8999L15.6999 21.1999V14.5999L21.1999 17.8999Z" fill="#FBFBFB"></path>
    </g>
  </symbol>
  <symbol fill="none" xmlns="http://www.w3.org/2000/svg" viewBox="0 0 36 36" id="facebook-hover">
    <rect x="0.5" y="0.5" width="35" height="35" rx="9.5" stroke="#3350E9" stroke-opacity="0.1"></rect>
    <g opacity="0.8">
      <path d="M20.2 10.9001C20.35 10.9001 20.5 10.9001 20.8 10.9001V13.1501C20.65 13.1501 20.35 13.1501 20.05 13.1501C19.75 13.1501 19.45 13.1501 19.3 13.3001C19.15 13.4501 19.15 13.6001 19.15 13.9501C19.15 14.2501 19.15 14.4501 19.15 14.7501H20.8V16.6501H19.15V24.9001H16.6V16.6001H15.25V14.7001H16.6V14.0501C16.6 12.9501 16.75 12.1501 17.05 11.8001C17.5 11.1501 18.4 10.8501 19.75 10.8501C19.9 10.9001 20.05 10.9001 20.2 10.9001Z" fill="#3350E9"></path>
    </g>
  </symbol>
  <symbol fill="none" xmlns="http://www.w3.org/2000/svg" viewBox="0 0 36 36" id="facebook">
    <rect x="0.5" y="0.5" width="35" height="35" rx="9.5" stroke="#0C0C0C" stroke-opacity="0.1"></rect>
    <g opacity="0.8">
      <path d="M20.2 10.9001C20.35 10.9001 20.5 10.9001 20.8 10.9001V13.1501C20.65 13.1501 20.35 13.1501 20.05 13.1501C19.75 13.1501 19.45 13.1501 19.3 13.3001C19.15 13.4501 19.15 13.6001 19.15 13.9501C19.15 14.2501 19.15 14.4501 19.15 14.7501H20.8V16.6501H19.15V24.9001H16.6V16.6001H15.25V14.7001H16.6V14.0501C16.6 12.9501 16.75 12.1501 17.05 11.8001C17.5 11.1501 18.4 10.8501 19.75 10.8501C19.9 10.9001 20.05 10.9001 20.2 10.9001Z" fill="#0C0C0C"></path>
    </g>
  </symbol>
  <symbol fill="none" xmlns="http://www.w3.org/2000/svg" viewBox="0 0 36 36" id="instagram-hover">
    <rect x="0.5" y="0.5" width="35" height="35" rx="9.5" stroke="#3350E9" stroke-opacity="0.1"></rect>
    <g opacity="0.8">
      <path d="M25.9485 14.7225C25.9387 14.051 25.8143 13.3849 25.5762 12.7568C25.1595 11.6844 24.311 10.8365 23.2368 10.4213C22.6157 10.188 21.9591 10.063 21.2945 10.0488C20.4398 10.0106 20.1688 10 17.9991 10C15.8294 10 15.5513 10 14.7028 10.0488C14.0391 10.063 13.3825 10.188 12.7614 10.4213C11.6873 10.8365 10.8378 11.6844 10.422 12.7568C10.1884 13.3769 10.0622 14.0324 10.0498 14.695C10.0116 15.5492 10 15.8197 10 17.9858C10 20.1519 10 20.4287 10.0498 21.2766C10.0631 21.9401 10.1884 22.5947 10.422 23.2165C10.8387 24.2881 11.6873 25.136 12.7623 25.5512C13.3807 25.7924 14.0373 25.929 14.7037 25.9503C15.5593 25.9885 15.8303 26 18 26C20.1697 26 20.4478 26 21.2963 25.9503C21.96 25.937 22.6166 25.812 23.2386 25.5787C24.3127 25.1627 25.1613 24.3147 25.578 23.2432C25.8116 22.6222 25.9369 21.9676 25.9502 21.3033C25.9884 20.4499 26 20.1794 26 18.0124C25.9982 15.8463 25.9982 15.5714 25.9485 14.7225ZM17.9938 22.0821C15.7246 22.0821 13.8863 20.2468 13.8863 17.9814C13.8863 15.7159 15.7246 13.8807 17.9938 13.8807C20.2612 13.8807 22.1013 15.7159 22.1013 17.9814C22.1013 20.2468 20.2612 22.0821 17.9938 22.0821ZM22.2648 14.6852C21.7343 14.6852 21.307 14.2577 21.307 13.729C21.307 13.2004 21.7343 12.7728 22.2648 12.7728C22.7934 12.7728 23.2217 13.2004 23.2217 13.729C23.2217 14.2577 22.7934 14.6852 22.2648 14.6852Z" fill="#3350E9"></path>
      <path d="M17.9952 20.485C19.3773 20.485 20.4977 19.3646 20.4977 17.9825C20.4977 16.6004 19.3773 15.48 17.9952 15.48C16.6131 15.48 15.4927 16.6004 15.4927 17.9825C15.4927 19.3646 16.6131 20.485 17.9952 20.485Z" fill="#3350E9"></path>
    </g>
  </symbol>
  <symbol fill="none" xmlns="http://www.w3.org/2000/svg" viewBox="0 0 36 36" id="instagram">
    <rect x="0.5" y="0.5" width="35" height="35" rx="9.5" stroke="#0C0C0C" stroke-opacity="0.1"></rect>
    <g opacity="0.8">
      <path d="M25.9485 14.7225C25.9387 14.051 25.8143 13.3849 25.5762 12.7568C25.1595 11.6844 24.311 10.8365 23.2368 10.4213C22.6157 10.188 21.9591 10.063 21.2945 10.0488C20.4398 10.0106 20.1688 10 17.9991 10C15.8294 10 15.5513 10 14.7028 10.0488C14.0391 10.063 13.3825 10.188 12.7614 10.4213C11.6873 10.8365 10.8378 11.6844 10.422 12.7568C10.1884 13.3769 10.0622 14.0324 10.0498 14.695C10.0116 15.5492 10 15.8197 10 17.9858C10 20.1519 10 20.4287 10.0498 21.2766C10.0631 21.9401 10.1884 22.5947 10.422 23.2165C10.8387 24.2881 11.6873 25.136 12.7623 25.5512C13.3807 25.7924 14.0373 25.929 14.7037 25.9503C15.5593 25.9885 15.8303 26 18 26C20.1697 26 20.4478 26 21.2963 25.9503C21.96 25.937 22.6166 25.812 23.2386 25.5787C24.3127 25.1627 25.1613 24.3147 25.578 23.2432C25.8116 22.6222 25.9369 21.9676 25.9502 21.3033C25.9884 20.4499 26 20.1794 26 18.0124C25.9982 15.8463 25.9982 15.5714 25.9485 14.7225ZM17.9938 22.0821C15.7246 22.0821 13.8863 20.2468 13.8863 17.9814C13.8863 15.7159 15.7246 13.8807 17.9938 13.8807C20.2612 13.8807 22.1013 15.7159 22.1013 17.9814C22.1013 20.2468 20.2612 22.0821 17.9938 22.0821ZM22.2648 14.6852C21.7343 14.6852 21.307 14.2577 21.307 13.729C21.307 13.2004 21.7343 12.7728 22.2648 12.7728C22.7934 12.7728 23.2217 13.2004 23.2217 13.729C23.2217 14.2577 22.7934 14.6852 22.2648 14.6852Z" fill="#0C0C0C"></path>
      <path d="M17.9952 20.485C19.3773 20.485 20.4977 19.3646 20.4977 17.9825C20.4977 16.6004 19.3773 15.48 17.9952 15.48C16.6131 15.48 15.4927 16.6004 15.4927 17.9825C15.4927 19.3646 16.6131 20.485 17.9952 20.485Z" fill="#0C0C0C"></path>
    </g>
  </symbol>
  <symbol fill="none" xmlns="http://www.w3.org/2000/svg" viewBox="0 0 36 36" id="youtube">
    <rect x="0.5" y="0.5" width="35" height="35" rx="9.5" stroke="#0C0C0C" stroke-opacity="0.1"></rect>
    <g opacity="0.8">
      <path fill-rule="evenodd" clip-rule="evenodd" d="M23.1499 11.7499C22.2999 11.6999 20.5499 11.6499 17.8999 11.6499H17.5499C14.9999 11.6499 13.2999 11.6999 12.4499 11.7999C11.2999 11.8999 10.4999 12.1999 10.0499 12.5999C9.6499 12.9499 9.34991 13.5999 9.24991 14.4499C9.19991 14.9999 9.1499 16.1499 9.1499 17.8999V18.1499C9.1499 19.7999 9.1999 20.9499 9.2999 21.4999C9.4499 22.2999 9.69992 22.8999 10.1999 23.2499C10.6999 23.6499 11.5499 23.8999 12.7499 23.9999C13.5999 24.0499 15.3499 24.0999 17.9999 24.0999H18.3499C20.8999 24.0999 22.5999 24.0499 23.4499 23.9499C24.5999 23.8499 25.3999 23.5499 25.8499 23.1499C26.2499 22.7999 26.5499 22.1499 26.6499 21.2999C26.6999 20.7499 26.7499 19.5999 26.7499 17.8499V17.5999C26.7499 15.9499 26.6999 14.7999 26.5999 14.2499C26.4499 13.4499 26.1999 12.8499 25.6999 12.4999C25.1999 12.0999 24.3499 11.8499 23.1499 11.7499ZM21.1999 17.8999L15.6999 21.1999V14.5999L21.1999 17.8999Z" fill="#0C0C0C"></path>
    </g>
  </symbol>
  <symbol fill="none" xmlns="http://www.w3.org/2000/svg" viewBox="0 0 36 36" id="youtube-hover">
    <rect x="0.5" y="0.5" width="35" height="35" rx="9.5" stroke="#3350E9" stroke-opacity="0.1"></rect>
    <g opacity="0.8">
      <path fill-rule="evenodd" clip-rule="evenodd" d="M23.1499 11.7499C22.2999 11.6999 20.5499 11.6499 17.8999 11.6499H17.5499C14.9999 11.6499 13.2999 11.6999 12.4499 11.7999C11.2999 11.8999 10.4999 12.1999 10.0499 12.5999C9.6499 12.9499 9.34991 13.5999 9.24991 14.4499C9.19991 14.9999 9.1499 16.1499 9.1499 17.8999V18.1499C9.1499 19.7999 9.1999 20.9499 9.2999 21.4999C9.4499 22.2999 9.69992 22.8999 10.1999 23.2499C10.6999 23.6499 11.5499 23.8999 12.7499 23.9999C13.5999 24.0499 15.3499 24.0999 17.9999 24.0999H18.3499C20.8999 24.0999 22.5999 24.0499 23.4499 23.9499C24.5999 23.8499 25.3999 23.5499 25.8499 23.1499C26.2499 22.7999 26.5499 22.1499 26.6499 21.2999C26.6999 20.7499 26.7499 19.5999 26.7499 17.8499V17.5999C26.7499 15.9499 26.6999 14.7999 26.5999 14.2499C26.4499 13.4499 26.1999 12.8499 25.6999 12.4999C25.1999 12.0999 24.3499 11.8499 23.1499 11.7499ZM21.1999 17.8999L15.6999 21.1999V14.5999L21.1999 17.8999Z" fill="#3350E9"></path>
    </g>
  </symbol>
</svg>